<svg width="135" height="36" viewBox="0 0 135 36" fill="none" xmlns="http://www.w3.org/2000/svg">
<path d="M0.668146 28V1.81818H18.3102V6.3821H6.20366V12.6207H17.4025V17.1847H6.20366V23.4361H18.3613V28H0.668146ZM31.481 28.3835C29.4696 28.3835 27.7395 27.9574 26.2907 27.1051C24.8503 26.2443 23.7424 25.0511 22.9668 23.5256C22.1998 22 21.8162 20.2443 21.8162 18.2585C21.8162 16.2472 22.204 14.483 22.9796 12.9659C23.7637 11.4403 24.8759 10.2514 26.3162 9.39915C27.7566 8.53835 29.4696 8.10795 31.4554 8.10795C33.1685 8.10795 34.6685 8.41903 35.9554 9.04119C37.2424 9.66335 38.2608 10.5369 39.0108 11.6619C39.7608 12.7869 40.1742 14.108 40.2509 15.625H35.1117C34.9668 14.6449 34.5833 13.8565 33.9611 13.2599C33.3475 12.6548 32.5421 12.3523 31.5449 12.3523C30.7012 12.3523 29.964 12.5824 29.3333 13.0426C28.7111 13.4943 28.2253 14.1548 27.8759 15.0241C27.5265 15.8935 27.3517 16.946 27.3517 18.1818C27.3517 19.4347 27.5222 20.5 27.8631 21.3778C28.2125 22.2557 28.7026 22.9247 29.3333 23.3849C29.964 23.8452 30.7012 24.0753 31.5449 24.0753C32.1671 24.0753 32.7253 23.9474 33.2196 23.6918C33.7225 23.4361 34.1358 23.0653 34.4597 22.5795C34.7921 22.0852 35.0094 21.4929 35.1117 20.8026H40.2509C40.1657 22.3026 39.7566 23.6236 39.0236 24.7656C38.2992 25.8991 37.2978 26.7855 36.0194 27.4247C34.7409 28.0639 33.2282 28.3835 31.481 28.3835ZM52.6099 28.3835C50.6241 28.3835 48.9068 27.9616 47.4579 27.1179C46.0176 26.2656 44.9054 25.081 44.1213 23.5639C43.3372 22.0384 42.9451 20.2699 42.9451 18.2585C42.9451 16.2301 43.3372 14.4574 44.1213 12.9403C44.9054 11.4148 46.0176 10.2301 47.4579 9.38636C48.9068 8.53409 50.6241 8.10795 52.6099 8.10795C54.5957 8.10795 56.3088 8.53409 57.7491 9.38636C59.198 10.2301 60.3145 11.4148 61.0985 12.9403C61.8826 14.4574 62.2747 16.2301 62.2747 18.2585C62.2747 20.2699 61.8826 22.0384 61.0985 23.5639C60.3145 25.081 59.198 26.2656 57.7491 27.1179C56.3088 27.9616 54.5957 28.3835 52.6099 28.3835ZM52.6355 24.1648C53.5389 24.1648 54.2931 23.9091 54.8983 23.3977C55.5034 22.8778 55.9593 22.1705 56.2662 21.2756C56.5815 20.3807 56.7392 19.3622 56.7392 18.2202C56.7392 17.0781 56.5815 16.0597 56.2662 15.1648C55.9593 14.2699 55.5034 13.5625 54.8983 13.0426C54.2931 12.5227 53.5389 12.2628 52.6355 12.2628C51.7235 12.2628 50.9565 12.5227 50.3343 13.0426C49.7207 13.5625 49.2562 14.2699 48.9409 15.1648C48.6341 16.0597 48.4806 17.0781 48.4806 18.2202C48.4806 19.3622 48.6341 20.3807 48.9409 21.2756C49.2562 22.1705 49.7207 22.8778 50.3343 23.3977C50.9565 23.9091 51.7235 24.1648 52.6355 24.1648ZM89.019 10.9844H83.4196C83.3173 10.2599 83.1085 9.61648 82.7931 9.05398C82.4778 8.48295 82.073 7.99716 81.5787 7.59659C81.0843 7.19602 80.5133 6.8892 79.8656 6.67614C79.2264 6.46307 78.5318 6.35653 77.7818 6.35653C76.4267 6.35653 75.2463 6.69318 74.2406 7.36648C73.2349 8.03125 72.4551 9.00284 71.9011 10.2812C71.3471 11.5511 71.0701 13.0937 71.0701 14.9091C71.0701 16.7756 71.3471 18.3437 71.9011 19.6136C72.4636 20.8835 73.2477 21.8423 74.2534 22.4901C75.2591 23.1378 76.4224 23.4616 77.7434 23.4616C78.4849 23.4616 79.171 23.3636 79.8017 23.1676C80.4409 22.9716 81.0076 22.6861 81.502 22.3111C81.9963 21.9276 82.4054 21.4631 82.7292 20.9176C83.0616 20.3722 83.2917 19.75 83.4196 19.0511L89.019 19.0767C88.8741 20.2784 88.5119 21.4375 87.9324 22.554C87.3613 23.6619 86.59 24.6548 85.6184 25.5327C84.6554 26.402 83.5048 27.0923 82.1667 27.6037C80.8372 28.1065 79.3329 28.358 77.6539 28.358C75.3187 28.358 73.2306 27.8295 71.3897 26.7727C69.5574 25.7159 68.1085 24.1861 67.0431 22.1832C65.9863 20.1804 65.4579 17.7557 65.4579 14.9091C65.4579 12.054 65.9949 9.625 67.0687 7.62216C68.1426 5.61932 69.6 4.09375 71.4409 3.04545C73.2818 1.98864 75.3528 1.46023 77.6539 1.46023C79.171 1.46023 80.5772 1.67329 81.8727 2.09943C83.1767 2.52557 84.3315 3.14773 85.3372 3.96591C86.3429 4.77557 87.161 5.76846 87.7917 6.9446C88.4309 8.12074 88.84 9.46733 89.019 10.9844ZM92.8862 28V8.36364H98.3322V28H92.8862ZM95.622 5.83239C94.8123 5.83239 94.1177 5.56392 93.5382 5.02699C92.9672 4.48153 92.6816 3.82954 92.6816 3.07102C92.6816 2.32102 92.9672 1.67756 93.5382 1.14062C94.1177 0.59517 94.8123 0.322442 95.622 0.322442C96.4316 0.322442 97.122 0.59517 97.693 1.14062C98.2725 1.67756 98.5623 2.32102 98.5623 3.07102C98.5623 3.82954 98.2725 4.48153 97.693 5.02699C97.122 5.56392 96.4316 5.83239 95.622 5.83239ZM113.139 8.36364V12.4545H101.314V8.36364H113.139ZM103.999 3.65909H109.445V21.9659C109.445 22.4687 109.521 22.8608 109.675 23.142C109.828 23.4148 110.041 23.6065 110.314 23.7173C110.595 23.8281 110.919 23.8835 111.286 23.8835C111.541 23.8835 111.797 23.8622 112.053 23.8196C112.308 23.7685 112.504 23.7301 112.641 23.7045L113.497 27.7571C113.225 27.8423 112.841 27.9403 112.347 28.0511C111.852 28.1705 111.252 28.2429 110.544 28.2685C109.232 28.3196 108.081 28.1449 107.093 27.7443C106.112 27.3437 105.35 26.7216 104.804 25.8778C104.259 25.0341 103.99 23.9687 103.999 22.6818V3.65909ZM120.049 35.3636C119.359 35.3636 118.711 35.3082 118.106 35.1974C117.509 35.0952 117.015 34.9631 116.623 34.8011L117.85 30.7358C118.49 30.9318 119.065 31.0384 119.576 31.0554C120.096 31.0724 120.544 30.9531 120.919 30.6974C121.302 30.4418 121.613 30.0071 121.852 29.3935L122.171 28.5625L115.127 8.36364H120.855L124.92 22.7841H125.124L129.228 8.36364H134.994L127.362 30.1222C126.995 31.179 126.497 32.0994 125.866 32.8835C125.244 33.6761 124.455 34.2855 123.501 34.7116C122.546 35.1463 121.396 35.3636 120.049 35.3636Z" fill="white"/>
</svg>
